# xmcd CD database file
#
# Track frame offsets:
#	150
#	20702
#	39732
#	58787
#	80957
#	102957
#	123460
#	138857
#	159505
#	175700
#	190675
#	212047
#
# Disc length: 3109 seconds
#
# Revision: 0
# Processed by: cddbd v1.5PL3 Copyright (c) Steve Scherf et al.
# Submitted via: CDex 1.50beta9
#
DISCID=a70c230c
DTITLE=吉岡忍 - Stray Cat
DYEAR=1997
DGENRE=JPop
TTITLE0=生きる強さだけあれば
TTITLE1=STRANGE LOVE
TTITLE2=雫
TTITLE3=Dip in the pool
TTITLE4=肉体
TTITLE5=Crescendo
TTITLE6=Party's goin'
TTITLE7=26
TTITLE8=キスがいい !!
TTITLE9=仲直り
TTITLE10=ひとつだけ空いてる
TTITLE11=天使になった
EXTD=YEAR: 1997
EXTT0=
EXTT1=
EXTT2=
EXTT3=
EXTT4=
EXTT5=
EXTT6=
EXTT7=
EXTT8=
EXTT9=
EXTT10=
EXTT11=
PLAYORDER=
